# Blender v2.91.0 OBJ File: ''
# www.blender.org
mtllib ExitSign.mtl
o Cube
v -0.029118 0.492410 1.000000
v -0.029118 -0.492410 1.000000
v -0.029118 0.492410 -1.000000
v -0.029118 -0.492410 -1.000000
v 0.263060 0.492410 1.000000
v 0.263060 -0.492410 1.000000
v 0.263060 0.492410 -1.000000
v 0.263060 -0.492410 -1.000000
v 0.263060 -0.492410 -0.000000
v -0.029118 0.492410 0.000000
v 0.263060 0.492410 -0.000000
v -0.029118 -0.492410 0.000000
v -0.029118 0.000000 1.000000
v 0.263060 0.000000 -1.000000
v -0.029118 0.000000 -1.000000
v 0.263060 0.000000 1.000000
v -0.029118 0.000000 0.000000
v 0.263060 0.000000 -0.000000
vt 0.501815 0.762476
vt 0.501815 0.830963
vt 0.267411 0.830963
vt 0.267411 0.762476
vt 0.239494 0.620086
vt 0.239494 0.735509
vt 0.171007 0.735509
vt 0.171007 0.620086
vt 0.502756 0.375315
vt 0.502756 0.490738
vt 0.268352 0.490738
vt 0.268352 0.375315
vt 0.502756 0.237844
vt 0.502756 0.169356
vt 0.737159 0.169356
vt 0.737159 0.237844
vt 0.502756 0.620086
vt 0.503102 0.735508
vt 0.268699 0.736210
vt 0.268353 0.620788
vt 0.756944 0.619456
vt 0.756944 0.504033
vt 0.825432 0.504033
vt 0.825432 0.619456
vt 0.737158 0.619384
vt 0.737504 0.734806
vt 0.268352 0.237844
vt 0.268352 0.169356
vt 0.737159 0.375315
vt 0.737159 0.490738
vt 0.736218 0.762476
vt 0.736218 0.830963
vt 0.737159 0.259892
vt 0.502756 0.259892
vt 0.736813 0.503962
vt 0.502410 0.504664
vt 0.756944 0.734878
vt 0.825432 0.734878
vt 0.268007 0.505366
vt 0.268352 0.259892
vt 0.239494 0.504663
vt 0.171007 0.504663
vn 0.0000 1.0000 -0.0000
vn 0.0000 0.0000 -1.0000
vn 1.0000 0.0000 -0.0000
vn 0.0000 -1.0000 -0.0000
vn -1.0000 0.0000 0.0000
vn 0.0000 0.0000 1.0000
usemtl Material
s off
f 10/1/1 11/2/1 7/3/1 3/4/1
f 15/5/2 3/6/2 7/7/2 14/8/2
f 18/9/3 11/10/3 5/11/3 16/12/3
f 9/13/4 12/14/4 4/15/4 8/16/4
f 17/17/5 10/18/5 3/19/5 15/20/5
f 16/21/6 5/22/6 1/23/6 13/24/6
f 13/25/5 1/26/5 10/18/5 17/17/5
f 6/27/4 2/28/4 12/14/4 9/13/4
f 14/29/3 7/30/3 11/10/3 18/9/3
f 1/31/1 5/32/1 11/2/1 10/1/1
f 8/33/3 14/29/3 18/9/3 9/34/3
f 2/35/5 13/25/5 17/17/5 12/36/5
f 6/37/6 16/21/6 13/24/6 2/38/6
f 12/36/5 17/17/5 15/20/5 4/39/5
f 9/34/3 18/9/3 16/12/3 6/40/3
f 4/41/2 15/5/2 14/8/2 8/42/2
