# Blender v2.82 (sub 7) OBJ File: 'FlashLight.blend'
# www.blender.org
mtllib FlashLight.mtl
o Cube.001
v -0.636938 0.403296 0.096550
v -0.636938 0.623829 0.096550
v -0.636938 0.403296 -0.153419
v -0.636938 0.623829 -0.153419
v -0.386969 0.403296 0.096550
v -0.386969 0.844497 0.073920
v -0.386969 0.403296 -0.153419
v -0.386969 0.844497 -0.130789
v -0.636938 0.623829 0.096550
v -0.636938 0.623829 -0.153419
v -0.386969 0.636863 -0.153419
v -0.386969 0.636863 0.096550
v 0.612510 0.403296 0.096550
v 0.612510 0.623829 0.096550
v 0.612510 0.403296 -0.153419
v 0.612510 0.623829 -0.153419
v 0.362541 0.403296 0.096550
v 0.362541 0.844497 0.073920
v 0.362541 0.403296 -0.153419
v 0.362541 0.844497 -0.130789
v 0.612510 0.623829 0.096550
v 0.612510 0.623829 -0.153419
v 0.362541 0.636863 -0.153419
v 0.362541 0.636863 0.096550
v -0.012214 0.844497 -0.130789
v -0.012214 0.844497 0.073920
v -0.012214 0.695690 -0.151241
v -0.012214 0.695690 0.098728
vt 0.986097 0.798279
vt 0.984751 0.798285
vt 0.983080 0.721149
vt 0.984427 0.721132
vt 0.922069 0.638316
vt 0.986097 0.644156
vt 0.880340 0.730361
vt 0.881708 0.793530
vt 0.766066 0.796034
vt 0.764698 0.732865
vt 0.985748 0.875429
vt 0.921507 0.879592
vt 0.915138 0.920733
vt 0.915138 0.992975
vt 0.837823 0.988944
vt 0.837823 0.920734
vt 0.683194 0.920733
vt 0.683194 0.992975
vt 0.605879 0.992975
vt 0.605879 0.920733
vt 0.760509 0.920734
vt 0.760509 0.988944
vt 0.789917 0.890365
vt 0.789473 0.813052
vt 0.906805 0.813052
vt 0.907249 0.890365
vt 0.975305 0.991886
vt 0.928902 0.994863
vt 0.932530 0.523432
vt 0.978576 0.527624
vt 0.986097 0.798279
vt 0.984427 0.721132
vt 0.983080 0.721149
vt 0.984751 0.798285
vt 0.986097 0.644156
vt 0.922069 0.638316
vt 0.880340 0.730361
vt 0.881708 0.793530
vt 0.985748 0.875429
vt 0.921507 0.879592
vt 0.915138 0.920733
vt 0.837823 0.920734
vt 0.837823 0.988944
vt 0.915138 0.992975
vt 0.683194 0.920733
vt 0.605879 0.920733
vt 0.605879 0.992975
vt 0.683194 0.992975
vt 0.760509 0.920734
vt 0.760509 0.988944
vt 0.789917 0.890365
vt 0.789473 0.813052
vn 0.0000 0.0000 1.0000
vn -0.0056 0.1083 -0.9941
vn 0.0000 1.0000 0.0000
vn -0.0056 0.1083 0.9941
vn -0.6618 0.7497 0.0000
vn 1.0000 0.0000 0.0000
vn 0.0000 0.0000 -1.0000
vn -1.0000 0.0000 0.0000
vn 0.1551 -0.9879 0.0000
vn -0.0132 0.1319 0.9912
vn -0.0065 0.1200 -0.9928
vn 0.0056 0.1083 -0.9941
vn 0.0056 0.1083 0.9941
vn 0.6618 0.7497 0.0000
vn -0.1551 -0.9879 0.0000
vn 0.0132 0.1319 0.9912
vn 0.0065 0.1200 -0.9928
usemtl None
s off
f 9/1/1 2/2/1 4/3/1 10/4/1
f 10/4/2 4/3/2 8/5/2 11/6/2
f 8/7/3 6/8/3 26/9/3 25/10/3
f 12/11/4 6/12/4 2/2/4 9/1/4
f 8/7/5 4/3/5 2/2/5 6/8/5
f 5/13/1 12/14/1 9/15/1 1/16/1
f 7/17/6 11/18/6 12/19/6 5/20/6
f 3/21/7 10/22/7 11/18/7 7/17/7
f 1/16/8 9/15/8 10/22/8 3/21/8
f 12/23/9 11/24/9 27/25/9 28/26/9
f 6/12/10 12/11/10 28/27/10 26/28/10
f 11/6/11 8/5/11 25/29/11 27/30/11
f 21/31/1 22/32/1 16/33/1 14/34/1
f 22/32/12 23/35/12 20/36/12 16/33/12
f 20/37/3 25/10/3 26/9/3 18/38/3
f 24/39/13 21/31/13 14/34/13 18/40/13
f 20/37/14 18/38/14 14/34/14 16/33/14
f 17/41/1 13/42/1 21/43/1 24/44/1
f 19/45/8 17/46/8 24/47/8 23/48/8
f 15/49/7 19/45/7 23/48/7 22/50/7
f 13/42/6 15/49/6 22/50/6 21/43/6
f 24/51/15 28/26/15 27/25/15 23/52/15
f 18/40/16 26/28/16 28/27/16 24/39/16
f 23/35/17 27/30/17 25/29/17 20/36/17
o Cube
v 1.040032 0.324953 -0.343169
v -1.018890 0.324953 -0.343169
v -1.408477 0.505899 -0.554380
v 1.040032 0.324953 0.343169
v -1.018890 0.324953 0.343169
v -1.408477 0.505899 0.554380
v 1.040031 0.486086 0.000000
v -1.018890 0.486086 0.000000
v -1.408478 0.748992 0.000000
v 1.040032 -0.324953 -0.343169
v -1.018890 -0.324953 -0.343169
v -1.408477 -0.505899 -0.554380
v 1.040031 0.000000 -0.485019
v -1.018890 0.000000 -0.485020
v -1.408477 0.000000 -0.748993
v 1.040032 -0.324953 0.343169
v -1.018890 -0.324953 0.343169
v -1.408477 -0.505899 0.554380
v 1.040031 -0.486086 0.000000
v -1.018890 -0.486086 0.000000
v -1.408478 -0.748992 0.000000
v 1.040031 0.000000 0.485019
v -1.018890 0.000000 0.485020
v -1.408477 0.000000 0.748993
v -1.408478 0.000000 0.000000
v 1.040031 0.000000 0.000000
vt 0.550490 0.616058
vt 0.546529 0.786348
vt 0.421771 0.728147
vt 0.380200 0.612097
vt 0.564287 0.311651
vt 0.632315 0.286108
vt 0.718076 0.359690
vt 0.562654 0.426812
vt 0.988163 0.123836
vt 0.956100 0.197823
vt 0.878153 0.234675
vt 0.877860 0.124129
vt 0.269565 0.490317
vt 0.269565 0.022076
vt 0.355784 0.022076
vt 0.355784 0.490317
vt 0.662957 0.222536
vt 0.771058 0.223960
vt 0.188930 0.490317
vt 0.188930 0.022076
vt 0.720780 0.620019
vt 0.673858 0.734010
vt 0.406010 0.356622
vt 0.494586 0.283239
vt 0.767557 0.124422
vt 0.800013 0.198237
vt 0.111154 0.980551
vt 0.024936 0.980551
vt 0.024936 0.512310
vt 0.111155 0.512310
vt 0.354255 0.217077
vt 0.463988 0.217665
vt 0.191790 0.512310
vt 0.191790 0.980551
vt 0.427122 0.498105
vt 0.554451 0.445767
vt 0.564386 0.123467
vt 0.567531 0.007608
vt 0.722594 0.084752
vt 0.632382 0.157128
vt 0.877566 0.013584
vt 0.955707 0.050021
vt 0.108295 0.490317
vt 0.022076 0.490317
vt 0.022076 0.022076
vt 0.108295 0.022076
vt 0.679209 0.503969
vt 0.495248 0.152051
vt 0.407011 0.076890
vt 0.799620 0.050436
vt 0.272425 0.980551
vt 0.272425 0.512310
vt 0.358644 0.512310
vt 0.358644 0.980551
vn -1.0000 -0.0000 -0.0000
vn 0.5335 0.7712 -0.3473
vn 1.0000 -0.0000 0.0000
vn 0.0000 0.9052 -0.4250
vn 0.5464 0.3144 -0.7763
vn 0.0000 0.4001 -0.9165
vn 0.5335 0.7712 0.3473
vn 0.0000 0.9052 0.4250
vn 0.5464 0.3144 0.7763
vn 0.0000 0.4001 0.9165
vn 0.5335 -0.7712 -0.3473
vn 0.0000 -0.9052 -0.4250
vn 0.5464 -0.3144 -0.7763
vn 0.0000 -0.4001 -0.9165
vn 0.5335 -0.7712 0.3473
vn 0.0000 -0.9052 0.4250
vn 0.5464 -0.3144 0.7763
vn 0.0000 -0.4001 0.9165
usemtl Material
s off
f 53/53/18 37/54/18 31/55/18 43/56/18
f 36/57/19 30/58/19 31/59/19 37/60/19
f 41/61/20 29/62/20 35/63/20 54/64/20
f 29/65/21 30/66/21 36/67/21 35/68/21
f 30/58/22 42/69/22 43/70/22 31/59/22
f 29/65/23 41/71/23 42/72/23 30/66/23
f 53/53/18 52/73/18 34/74/18 37/54/18
f 36/57/24 37/60/24 34/75/24 33/76/24
f 50/77/20 54/64/20 35/63/20 32/78/20
f 32/79/25 35/80/25 36/81/25 33/82/25
f 33/76/26 34/75/26 52/83/26 51/84/26
f 32/79/27 33/82/27 51/85/27 50/86/27
f 53/53/18 43/56/18 40/87/18 49/88/18
f 48/89/28 49/90/28 40/91/28 39/92/28
f 41/61/20 54/64/20 47/93/20 38/94/20
f 38/95/29 47/96/29 48/97/29 39/98/29
f 39/92/30 40/91/30 43/70/30 42/69/30
f 38/95/31 39/98/31 42/72/31 41/71/31
f 53/53/18 49/88/18 46/99/18 52/73/18
f 48/89/32 45/100/32 46/101/32 49/90/32
f 50/77/20 44/102/20 47/93/20 54/64/20
f 44/103/33 45/104/33 48/105/33 47/106/33
f 45/100/34 51/84/34 52/83/34 46/101/34
f 44/103/35 50/86/35 51/85/35 45/104/35
