# Blender v2.82 (sub 7) OBJ File: 'Lamp.blend'
# www.blender.org
mtllib Lamp.mtl
o Cube
v 1.000000 -1.000000 -1.000000
v 1.000000 -1.000000 1.000000
v -1.000000 -1.000000 1.000000
v -1.000000 -1.000000 -1.000000
v 0.287047 0.204675 -0.287047
v 0.287047 0.204675 0.287047
v -0.287047 0.204675 0.287047
v -0.287047 0.204675 -0.287047
v 0.165270 0.204675 -0.165270
v 0.165270 0.204675 0.165270
v -0.165270 0.204675 -0.165270
v -0.165270 0.204675 0.165270
v 0.165270 3.205683 -0.165270
v 0.165270 3.205683 0.165270
v -0.165270 3.205683 -0.165270
v -0.165270 3.205683 0.165270
v 0.943507 -1.001143 -0.943507
v 0.943507 -1.001143 0.943507
v -0.943507 -1.001143 0.943506
v -0.943506 -1.001143 -0.943507
v 0.268533 0.139919 -0.268533
v 0.268533 0.139920 0.268533
v -0.268533 0.139920 0.268533
v -0.268533 0.139920 -0.268533
v 0.162913 0.195247 -0.162913
v 0.162913 0.195247 0.162913
v -0.162913 0.195247 -0.162913
v -0.162913 0.195247 0.162913
vt 0.000000 0.912466
vt 0.000000 0.797670
vt 0.020004 0.822021
vt 0.020004 0.888115
vt 0.782660 0.399919
vt 0.648674 0.257357
vt 0.648674 0.142562
vt 0.782660 0.000000
vt 0.197901 0.797670
vt 0.000000 0.655108
vt 0.000000 0.540313
vt 0.197901 0.397751
vt 0.449719 0.399919
vt 0.227926 0.257358
vt 0.227926 0.142562
vt 0.449718 0.000000
vt 0.449719 0.142562
vt 0.647619 0.000000
vt 0.647619 0.399919
vt 0.449719 0.257357
vt 0.837106 0.399919
vt 0.891404 0.399919
vt 0.891404 1.000000
vt 0.837106 1.000000
vt 0.094307 0.797670
vt 0.074302 0.822021
vt 0.094307 0.912466
vt 0.074302 0.888115
vt 0.945702 0.399919
vt 1.000000 0.399919
vt 1.000000 0.949207
vt 0.945702 0.949207
vt 0.945702 0.978707
vt 0.891404 0.978707
vt 0.891404 0.399919
vt 0.945702 0.399919
vt 0.837106 1.000000
vt 0.782807 1.000000
vt 0.782807 0.399919
vt 0.837105 0.399919
vt 0.094307 0.910875
vt 0.114045 0.886849
vt 0.167569 0.886849
vt 0.187307 0.910875
vt 0.782807 0.399919
vt 0.782807 0.797670
vt 0.623088 0.655397
vt 0.623089 0.542193
vt 0.425507 0.399919
vt 0.425507 0.797670
vt 0.227926 0.655397
vt 0.227926 0.542193
vt 0.227926 0.000000
vt 0.227926 0.397751
vt 0.000000 0.255478
vt 0.000000 0.142273
vt 0.425507 0.655397
vt 0.425507 0.542192
vt 0.623088 0.399919
vt 0.623088 0.797670
vt 0.167569 0.821696
vt 0.187307 0.797670
vt 0.094307 0.797670
vt 0.114045 0.821696
vt 0.783983 0.001084
vt 0.783983 0.398835
vt 0.648674 0.001084
vt 0.648674 0.398835
vt 0.198955 0.398835
vt 0.198955 0.796586
vt 0.199846 0.397751
vt 0.199846 0.797670
vt 0.198955 0.796586
vn 0.0000 1.0000 -0.0000
vn 0.8606 0.5093 0.0000
vn -0.0000 0.5093 0.8606
vn -0.8606 0.5093 -0.0000
vn 0.0000 0.5093 -0.8606
vn -0.0000 0.0000 1.0000
vn 1.0000 0.0000 0.0000
vn -1.0000 0.0000 -0.0000
vn 0.0000 0.0000 -1.0000
vn 0.0000 -0.8858 -0.4640
vn -0.8607 -0.5091 0.0000
vn 0.0000 -0.5091 -0.8607
vn 0.8607 -0.5091 0.0000
vn -0.0000 -0.5091 0.8607
vn -0.4640 -0.8858 0.0000
vn 0.4640 -0.8858 0.0000
vn -0.0000 -0.8858 0.4640
vn 0.0000 -1.0000 0.0000
vn 0.0202 -0.9998 0.0000
vn 0.0000 -0.9998 -0.0202
vn -0.0000 -0.9998 0.0202
vn -0.0202 -0.9998 -0.0000
usemtl Material
s off
f 7/1/1 6/2/1 10/3/1 12/4/1
f 1/5/2 5/6/2 6/7/2 2/8/2
f 2/9/3 6/10/3 7/11/3 3/12/3
f 3/13/4 7/14/4 8/15/4 4/16/4
f 5/17/5 1/18/5 4/19/5 8/20/5
f 12/21/6 10/22/6 14/23/6 16/24/6
f 6/2/1 5/25/1 9/26/1 10/3/1
f 8/27/1 7/1/1 12/4/1 11/28/1
f 5/25/1 8/27/1 11/28/1 9/26/1
f 10/29/7 9/30/7 13/31/7 14/32/7
f 11/33/8 12/34/8 16/35/8 15/36/8
f 9/37/9 11/38/9 15/39/9 13/40/9
f 23/41/10 28/42/10 26/43/10 22/44/10
f 17/45/11 18/46/11 22/47/11 21/48/11
f 18/49/12 19/50/12 23/51/12 22/52/12
f 19/53/13 20/54/13 24/55/13 23/56/13
f 21/57/14 24/58/14 20/59/14 17/60/14
f 22/44/15 26/43/15 25/61/15 21/62/15
f 24/63/16 27/64/16 28/42/16 23/41/16
f 21/62/17 25/61/17 27/64/17 24/63/17
f 27/64/18 25/61/18 26/43/18 28/42/18
f 1/5/19 2/8/19 18/65/19 17/66/19
f 4/19/20 1/18/20 17/67/20 20/68/20
f 2/9/21 3/12/21 19/69/21 18/70/21
f 3/71/22 4/72/22 20/73/22 19/69/22
