# Blender v2.82 (sub 7) OBJ File: 'LongLamp.blend'
# www.blender.org
mtllib LongLamp.mtl
o Cube
v 0.900000 0.294548 -3.661967
v 0.900000 -0.294548 -3.661967
v 0.900000 0.294548 3.661967
v 0.900000 -0.294548 3.661967
v -0.900000 0.294548 -3.661967
v -0.900000 -0.294548 -3.661967
v -0.900000 0.294548 3.661967
v -0.900000 -0.294548 3.661967
v -0.900000 -0.294548 0.000000
v 0.900000 0.294548 0.000000
v -0.900000 0.294548 0.000000
v 0.900000 -0.294548 0.000000
v -0.900000 0.294548 -1.830983
v 0.900000 -0.294548 -1.830983
v -0.900000 -0.294548 -1.830983
v 0.900000 0.294548 -1.830983
v -0.900000 -0.294548 1.830983
v 0.900000 0.294548 1.830983
v -0.900000 0.294548 1.830983
v 0.900000 -0.294548 1.830983
vt 0.870679 0.288273
vt 0.659011 0.288273
vt 0.659011 0.072961
vt 0.870679 0.072961
vt 0.281045 0.930624
vt 0.281045 0.999898
vt 0.069376 0.999898
vt 0.069376 0.930624
vt 0.069376 0.284688
vt 0.000102 0.284688
vt 0.000102 0.069376
vt 0.069375 0.069376
vt 0.069376 0.715312
vt 0.281044 0.715312
vt 0.350318 0.715312
vt 0.350318 0.930624
vt 0.069375 0.000102
vt 0.281044 0.000102
vt 0.281044 0.069376
vt 0.281044 0.284688
vt 0.350318 0.284688
vt 0.350318 0.500000
vt 0.281044 0.500000
vt 0.069376 0.500000
vt 0.000102 0.715312
vt 0.000102 0.500000
vt 0.870679 0.718897
vt 0.659011 0.718897
vt 0.659011 0.503585
vt 0.870679 0.503585
vt 0.870679 0.934209
vt 0.659011 0.934209
vt 0.350318 0.069376
vt 0.000102 0.930624
vn 0.0000 1.0000 0.0000
vn 0.0000 0.0000 1.0000
vn -1.0000 0.0000 0.0000
vn 0.0000 -1.0000 0.0000
vn 1.0000 0.0000 0.0000
vn 0.0000 0.0000 -1.0000
usemtl Material
s off
f 18/1/1 19/2/1 7/3/1 3/4/1
f 4/5/2 3/6/2 7/7/2 8/8/2
f 15/9/3 13/10/3 5/11/3 6/12/3
f 17/13/4 20/14/4 4/5/4 8/8/4
f 20/14/5 18/15/5 3/16/5 4/5/5
f 6/12/6 5/17/6 1/18/6 2/19/6
f 14/20/5 16/21/5 10/22/5 12/23/5
f 15/9/4 14/20/4 12/23/4 9/24/4
f 17/13/3 19/25/3 11/26/3 9/24/3
f 16/27/1 13/28/1 11/29/1 10/30/1
f 1/31/1 5/32/1 13/28/1 16/27/1
f 6/12/4 2/19/4 14/20/4 15/9/4
f 2/19/5 1/33/5 16/21/5 14/20/5
f 9/24/3 11/26/3 13/10/3 15/9/3
f 8/8/3 7/34/3 19/25/3 17/13/3
f 12/23/5 10/22/5 18/15/5 20/14/5
f 9/24/4 12/23/4 20/14/4 17/13/4
f 10/30/1 11/29/1 19/2/1 18/1/1
