# Blender v2.91.2 OBJ File: 'Oven.blend'
# www.blender.org
mtllib Oven.mtl
o Cube
v 0.873628 1.000000 -1.000000
v 1.000000 -1.000000 -1.000000
v 0.873628 1.000000 1.000000
v 1.000000 -1.000000 1.000000
v -1.000000 1.000000 -1.000000
v -1.000000 -1.000000 -1.000000
v -1.000000 1.000000 1.000000
v -1.000000 -1.000000 1.000000
v 0.641192 -1.000000 -1.000000
v 0.641192 1.000000 1.000000
v 0.641192 -1.000000 1.000000
v 0.641192 1.000000 -1.000000
v 1.000000 0.644983 -1.000000
v -1.000000 0.644983 1.000000
v 1.000000 0.644983 1.000000
v -1.000000 0.644983 -1.000000
v 0.641192 0.644983 -1.000000
v 0.641192 0.644983 1.000000
v 1.000000 0.428815 -1.000000
v 1.000000 0.428815 1.000000
v -1.000000 0.428815 -1.000000
v 0.641192 0.428815 -1.000000
v 0.641192 0.428815 1.000000
v -1.000000 0.428815 1.000000
v -1.000000 0.536899 1.000000
v 1.000000 0.536899 -1.000000
v 1.000000 0.536899 1.000000
v -1.000000 0.536899 -1.000000
v 0.641192 0.536899 -1.000000
v 0.641192 0.536899 1.000000
v 1.093766 0.536899 -1.000000
v 1.093766 0.428815 -1.000000
v 1.093766 0.536899 1.000000
v 1.093766 0.428815 1.000000
v 0.569672 0.978739 0.912843
v -0.928480 0.978739 0.912843
v -0.928480 0.978739 -0.912843
v 0.569672 0.978739 -0.912843
v -0.179404 -1.000000 -1.000000
v -0.179404 1.000000 1.000000
v -0.179404 -1.000000 1.000000
v -0.179404 1.000000 -1.000000
v -0.179404 0.644983 -1.000000
v -0.179404 0.644983 1.000000
v -0.179404 0.428815 1.000000
v -0.179404 0.428815 -1.000000
v -0.179404 0.536899 1.000000
v -0.179404 0.536899 -1.000000
v -0.179404 0.978739 0.912843
v -0.179404 0.978739 -0.912843
v -1.000000 -1.000000 0.000000
v 0.873628 1.000000 0.000000
v -1.000000 1.000000 0.000000
v 1.000000 -1.000000 0.000000
v 0.641192 -1.000000 0.000000
v 0.641192 1.000000 0.000000
v 1.000000 0.644983 0.000000
v -1.000000 0.644983 0.000000
v -1.000000 0.428815 0.000000
v 1.000000 0.428815 0.000000
v -1.000000 0.536899 0.000000
v 1.000000 0.536899 0.000000
v 1.093766 0.428815 0.000000
v 1.093766 0.536899 0.000000
v -0.928480 0.978739 0.000000
v 0.569672 0.978739 0.000000
v -0.179404 0.978739 0.000000
v -0.179404 -1.000000 0.000000
v 1.000000 -0.285592 -1.000000
v 1.000000 -0.285592 1.000000
v -1.000000 -0.285592 -1.000000
v 0.641192 -0.285592 -1.000000
v 0.641192 -0.285592 1.000000
v -1.000000 -0.285592 1.000000
v -0.179404 -0.285592 -1.000000
v -0.179404 -0.285592 1.000000
v 1.000000 -0.285592 0.000000
v -1.000000 -0.285592 0.000000
vt 0.825611 0.397412
vt 0.971000 0.398782
vt 0.958024 0.409484
vt 0.825559 0.408308
vt 0.473884 0.260559
vt 0.473884 0.312239
vt 0.354427 0.312239
vt 0.354427 0.260558
vt 0.166667 0.593892
vt 0.166667 0.645573
vt 0.021094 0.645573
vt 0.021094 0.593892
vt 0.833333 0.073327
vt 0.833333 0.021094
vt 0.978906 0.021094
vt 0.978906 0.073327
vt 0.165371 0.941622
vt 0.165371 0.996479
vt 0.019798 0.996479
vt 0.019798 0.941622
vt 0.073327 0.260559
vt 0.073327 0.312239
vt 0.039490 0.312239
vt 0.021094 0.260559
vt 0.192783 0.260559
vt 0.192783 0.312239
vt 0.833333 0.192783
vt 0.978906 0.192783
vt 0.645573 0.260559
vt 0.627176 0.312239
vt 0.593340 0.312239
vt 0.593340 0.260559
vt 0.825771 0.363630
vt 0.680342 0.397433
vt 0.680335 0.363630
vt 0.645573 0.244824
vt 0.593340 0.244824
vt 0.192783 0.244825
vt 0.073327 0.244825
vt 0.021094 0.244825
vt 0.165371 0.925888
vt 0.019798 0.925888
vt 0.166667 0.578158
vt 0.021094 0.578158
vt 0.473884 0.244824
vt 0.354427 0.244824
vt 0.473884 0.125092
vt 0.473884 0.229090
vt 0.354427 0.229090
vt 0.354427 0.125092
vt 0.166667 0.458426
vt 0.166667 0.562424
vt 0.021094 0.562424
vt 0.021094 0.458426
vt 0.166667 0.791759
vt 0.166667 0.895757
vt 0.021094 0.895757
vt 0.021094 0.791759
vt 0.073327 0.125092
vt 0.073327 0.229091
vt 0.021094 0.229090
vt 0.021094 0.125092
vt 0.192783 0.125092
vt 0.192783 0.229091
vt 0.645573 0.125092
vt 0.645573 0.229090
vt 0.593340 0.229090
vt 0.593340 0.125092
vt 0.677881 0.786312
vt 0.677881 0.802046
vt 0.664232 0.802046
vt 0.664232 0.786312
vt 0.518659 0.786312
vt 0.518659 0.802046
vt 0.373086 0.802046
vt 0.373086 0.786312
vt 0.518659 0.815696
vt 0.373086 0.815696
vt 0.359437 0.802046
vt 0.359437 0.786312
vt 0.518659 0.772662
vt 0.664232 0.772662
vt 0.825002 0.517679
vt 0.824471 0.627187
vt 0.691788 0.625733
vt 0.691685 0.516886
vt 0.678558 0.516802
vt 0.693184 0.408247
vt 0.971436 0.518363
vt 0.969843 0.637751
vt 0.956979 0.626959
vt 0.958309 0.518301
vt 0.824420 0.638103
vt 0.678784 0.636419
vt 0.312239 0.229090
vt 0.312239 0.244825
vt 0.312239 0.125092
vt 0.312239 0.260559
vt 0.833333 0.312239
vt 0.978906 0.312239
vt 0.312239 0.312240
vt 0.687761 0.312239
vt 0.687761 0.192783
vt 0.373086 0.772662
vt 0.664232 0.815696
vt 0.312239 0.562424
vt 0.312239 0.578158
vt 0.312239 0.791759
vt 0.312239 0.895757
vt 0.312239 0.458426
vt 0.312239 0.593892
vt 0.310944 0.925888
vt 0.310944 0.941622
vt 0.971308 0.364954
vt 0.687761 0.073327
vt 0.310944 0.996479
vt 0.687761 0.021094
vt 0.312239 0.645573
vt 0.312239 0.354427
vt 0.166667 0.354427
vt 0.312239 0.687761
vt 0.166667 0.687761
vt 0.593340 0.021094
vt 0.473884 0.021094
vt 0.312239 0.021094
vt 0.192783 0.021094
vt 0.645573 0.021094
vt 0.073327 0.021094
vt 0.021094 0.021094
vt 0.021094 0.687761
vt 0.021094 0.354427
vt 0.354427 0.021094
vn -0.2849 0.9585 0.0000
vn 0.0000 0.0000 1.0000
vn -1.0000 0.0000 0.0000
vn 0.0000 -1.0000 0.0000
vn 0.9421 0.3353 0.0000
vn 0.0000 0.0000 -1.0000
vn 0.0000 1.0000 0.0000
vn 1.0000 0.0000 0.0000
vn 0.0000 0.9715 -0.2370
vn 0.0000 0.9715 0.2370
vn 0.2849 0.9585 0.0000
usemtl Material
s off
f 56/1/1 12/2/1 38/3/1 66/4/1
f 44/5/2 40/6/2 7/7/2 14/8/2
f 58/9/3 53/10/3 5/11/3 16/12/3
f 55/13/4 54/14/4 4/15/4 11/16/4
f 57/17/5 52/18/5 3/19/5 15/20/5
f 17/21/6 12/22/6 1/23/6 13/24/6
f 43/25/6 42/26/6 12/22/6 17/21/6
f 68/27/4 55/13/4 11/16/4 41/28/4
f 15/29/2 3/30/2 10/31/2 18/32/2
f 52/33/7 56/1/7 10/34/7 3/35/7
f 27/36/2 15/29/2 18/32/2 30/37/2
f 48/38/6 43/25/6 17/21/6 29/39/6
f 29/39/6 17/21/6 13/24/6 26/40/6
f 62/41/8 57/17/8 15/20/8 27/42/8
f 61/43/3 58/9/3 16/12/3 28/44/3
f 47/45/2 44/5/2 14/8/2 25/46/2
f 76/47/2 45/48/2 24/49/2 74/50/2
f 78/51/3 59/52/3 21/53/3 71/54/3
f 77/55/8 60/56/8 20/57/8 70/58/8
f 72/59/6 22/60/6 19/61/6 69/62/6
f 75/63/6 46/64/6 22/60/6 72/59/6
f 70/65/2 20/66/2 23/67/2 73/68/2
f 45/48/2 47/45/2 25/46/2 24/49/2
f 59/52/3 61/43/3 28/44/3 21/53/3
f 19/69/6 26/70/6 31/71/6 32/72/6
f 22/60/6 29/39/6 26/40/6 19/61/6
f 46/64/6 48/38/6 29/39/6 22/60/6
f 20/66/2 27/36/2 30/37/2 23/67/2
f 63/73/8 64/74/8 33/75/8 34/76/8
f 62/77/7 27/78/7 33/75/7 64/74/7
f 27/79/2 20/80/2 34/76/2 33/75/2
f 60/81/4 19/82/4 32/72/4 63/73/4
f 67/83/7 65/84/7 36/85/7 49/86/7
f 40/87/9 10/34/9 35/88/9 49/86/9
f 42/89/10 5/90/10 37/91/10 50/92/10
f 53/93/11 7/94/11 36/85/11 65/84/11
f 12/2/10 42/89/10 50/92/10 38/3/10
f 7/94/9 40/87/9 49/86/9 36/85/9
f 66/4/7 67/83/7 49/86/7 35/88/7
f 21/95/6 28/96/6 48/38/6 46/64/6
f 23/67/2 30/37/2 47/45/2 45/48/2
f 71/97/6 21/95/6 46/64/6 75/63/6
f 73/68/2 23/67/2 45/48/2 76/47/2
f 30/37/2 18/32/2 44/5/2 47/45/2
f 28/96/6 16/98/6 43/25/6 48/38/6
f 51/99/4 68/27/4 41/28/4 8/100/4
f 16/98/6 5/101/6 42/26/6 43/25/6
f 18/32/2 10/31/2 40/6/2 44/5/2
f 6/102/4 39/103/4 68/27/4 51/99/4
f 38/3/7 50/92/7 67/83/7 66/4/7
f 5/90/11 53/93/11 65/84/11 37/91/11
f 50/92/7 37/91/7 65/84/7 67/83/7
f 20/104/4 60/81/4 63/73/4 34/76/4
f 26/105/7 62/77/7 64/74/7 31/71/7
f 32/72/8 31/71/8 64/74/8 63/73/8
f 24/106/3 25/107/3 61/43/3 59/52/3
f 69/108/8 19/109/8 60/56/8 77/55/8
f 74/110/3 24/106/3 59/52/3 78/51/3
f 25/107/3 14/111/3 58/9/3 61/43/3
f 26/112/8 13/113/8 57/17/8 62/41/8
f 1/114/7 12/2/7 56/1/7 52/33/7
f 39/103/4 9/115/4 55/13/4 68/27/4
f 13/113/5 1/116/5 52/18/5 57/17/5
f 9/115/4 2/117/4 54/14/4 55/13/4
f 14/111/3 7/118/3 53/10/3 58/9/3
f 10/34/1 56/1/1 66/4/1 35/88/1
f 8/119/3 74/110/3 78/51/3 51/120/3
f 2/121/8 69/108/8 77/55/8 54/122/8
f 11/123/2 73/68/2 76/47/2 41/124/2
f 6/125/6 71/97/6 75/63/6 39/126/6
f 4/127/2 70/65/2 73/68/2 11/123/2
f 39/126/6 75/63/6 72/59/6 9/128/6
f 9/128/6 72/59/6 69/62/6 2/129/6
f 54/122/8 77/55/8 70/58/8 4/130/8
f 51/120/3 78/51/3 71/54/3 6/131/3
f 41/124/2 76/47/2 74/50/2 8/132/2
