# Blender v2.82 (sub 7) OBJ File: 'Radio.blend'
# www.blender.org
mtllib Radio.mtl
o Cube
v 0.350000 1.200810 -1.000000
v 0.350000 0.000810 -1.000000
v 0.350000 1.200810 1.000000
v 0.350000 0.000810 1.000000
v -0.350000 1.200810 -1.000000
v -0.350000 0.000810 -1.000000
v -0.350000 1.200810 1.000000
v -0.350000 0.000810 1.000000
v 0.304828 1.158210 -0.929000
v 0.304828 0.043410 -0.929000
v 0.304828 1.158210 0.929000
v 0.304828 0.043410 0.929000
v -0.350000 0.000810 0.000000
v 0.350000 1.200810 0.000000
v -0.350000 1.200810 0.000000
v 0.350000 0.000810 0.000000
v 0.304828 1.158210 0.000000
v 0.304828 0.043410 0.000000
v 0.350000 0.600810 -1.000000
v -0.350000 0.600810 1.000000
v 0.350000 0.600810 1.000000
v -0.350000 0.600810 -1.000000
v 0.304828 0.600810 -0.929000
v 0.304828 0.600810 0.929000
v 0.304828 0.600810 0.000000
v -0.350000 0.600810 0.000000
v 0.000000 0.000810 -1.000000
v 0.000000 1.200810 1.000000
v 0.000000 0.000810 1.000000
v 0.000000 1.200810 -1.000000
v 0.000000 0.000810 0.000000
v 0.000000 1.200810 0.000000
v 0.000000 0.600810 -1.000000
v 0.000000 0.600810 1.000000
vt 0.516084 0.890070
vt 0.516084 0.811877
vt 0.739492 0.811877
vt 0.739492 0.890070
vt 0.817684 0.677832
vt 0.817684 0.811877
vt 0.739492 0.677832
vt 0.516084 0.677832
vt 0.292676 0.811877
vt 0.292676 0.677832
vt 0.516084 0.465595
vt 0.516084 0.387402
vt 0.739492 0.387402
vt 0.739492 0.465595
vt 0.280608 0.177573
vt 0.280608 0.043529
vt 0.299408 0.053046
vt 0.299408 0.177573
vt 0.214483 0.677832
vt 0.214483 0.811877
vt 0.136290 0.811877
vt 0.136291 0.677832
vt 0.506954 0.177573
vt 0.506954 0.302101
vt 0.299408 0.302101
vt 0.733300 0.177573
vt 0.733300 0.311618
vt 0.714500 0.302101
vt 0.714499 0.177573
vt 0.506954 0.039174
vt 0.730361 0.039174
vt 0.714499 0.053046
vt 0.506954 0.053046
vt 0.506954 0.315972
vt 0.283546 0.315972
vt 0.730362 0.315972
vt 0.283546 0.039174
vt 0.292676 0.465595
vt 0.292676 0.387402
vt 0.292676 0.890070
vt 0.739492 0.543788
vt 0.516084 0.543788
vt 0.733299 0.043529
vt 0.214483 0.543788
vt 0.136291 0.543788
vt 0.280608 0.311618
vt 0.292676 0.543788
vt 0.817684 0.543788
vt 0.895877 0.543788
vt 0.895877 0.677832
vt 0.292676 0.968263
vt 0.516084 0.968263
vt 0.895877 0.811877
vt 0.739492 0.968262
vn 0.0000 1.0000 0.0000
vn 0.0000 0.0000 1.0000
vn -1.0000 0.0000 0.0000
vn 0.0000 -1.0000 0.0000
vn 0.8437 0.0000 -0.5368
vn 0.0000 0.0000 -1.0000
vn 1.0000 0.0000 0.0000
vn 0.8437 0.0000 0.5368
vn 0.6861 0.7275 0.0000
vn 0.6861 -0.7275 0.0000
usemtl Material
s off
f 32/1/1 15/2/1 7/3/1 28/4/1
f 34/5/2 28/6/2 7/3/2 20/7/2
f 26/8/3 15/2/3 5/9/3 22/10/3
f 31/11/4 16/12/4 4/13/4 29/14/4
f 21/15/5 4/16/5 12/17/5 24/18/5
f 33/19/6 30/20/6 1/21/6 19/22/6
f 25/23/7 17/24/7 11/25/7 24/18/7
f 19/26/8 1/27/8 9/28/8 23/29/8
f 16/30/9 2/31/9 10/32/9 18/33/9
f 14/34/10 3/35/10 11/25/10 17/24/10
f 1/36/10 14/34/10 17/24/10 9/28/10
f 4/37/9 16/30/9 18/33/9 12/17/9
f 23/29/7 9/28/7 17/24/7 25/23/7
f 27/38/4 2/39/4 16/12/4 31/11/4
f 20/7/3 7/3/3 15/2/3 26/8/3
f 30/40/1 5/9/1 15/2/1 32/1/1
f 8/41/3 20/7/3 26/8/3 13/42/3
f 10/32/7 23/29/7 25/23/7 18/33/7
f 2/43/8 19/26/8 23/29/8 10/32/8
f 18/33/7 25/23/7 24/18/7 12/17/7
f 27/44/6 33/19/6 19/22/6 2/45/6
f 3/46/5 21/15/5 24/18/5 11/25/5
f 13/42/3 26/8/3 22/10/3 6/47/3
f 29/48/2 34/5/2 20/7/2 8/41/2
f 4/49/2 21/50/2 34/5/2 29/48/2
f 6/47/6 22/10/6 33/19/6 27/44/6
f 1/51/1 30/40/1 32/1/1 14/52/1
f 6/47/4 27/38/4 31/11/4 13/42/4
f 22/10/6 5/9/6 30/20/6 33/19/6
f 13/42/4 31/11/4 29/14/4 8/41/4
f 21/50/2 3/53/2 28/6/2 34/5/2
f 14/52/1 32/1/1 28/4/1 3/54/1
