# Blender v2.82 (sub 7) OBJ File: 'Radiator.blend'
# www.blender.org
mtllib Radiator.mtl
o Cube
v 1.430000 0.800000 0.250000
v 1.430000 -0.800000 0.250000
v -1.430000 0.800000 0.250000
v -1.430000 -0.800000 0.250000
v 1.430000 0.800000 -0.250000
v 1.430000 -0.800000 -0.250000
v -1.430000 0.800000 -0.250000
v -1.430000 -0.800000 -0.250000
v -1.430000 -0.800000 0.000000
v 1.430000 0.800000 0.000000
v -1.430000 0.800000 0.000000
v 1.430000 -0.800000 0.000000
v 0.000000 0.800000 0.250000
v 0.000000 -0.800000 0.250000
v 0.000000 -0.800000 0.000000
v 0.000000 0.800000 -0.250000
v 0.000000 -0.800000 -0.250000
v -0.715000 0.800000 0.250000
v -0.715000 -0.800000 0.000000
v -0.715000 0.800000 -0.250000
v -0.715000 -0.800000 0.250000
v -0.715000 -0.800000 -0.250000
v 0.715000 -0.800000 0.250000
v 0.715000 -0.800000 -0.250000
v 0.715000 0.800000 0.250000
v 0.715000 -0.800000 0.000000
v 0.715000 0.800000 -0.250000
v -1.430000 0.000000 0.250000
v 1.430000 0.000000 0.250000
v -1.430000 0.000000 -0.250000
v 1.430000 0.000000 -0.250000
v 0.000000 0.000000 -0.250000
v 0.000000 0.000000 0.250000
v -0.715000 0.000000 -0.250000
v -0.715000 0.000000 0.250000
v 0.715000 0.000000 0.250000
v 0.715000 0.000000 -0.250000
v -1.409117 -0.740099 0.000000
v -1.409117 -0.740099 0.197079
v -1.409117 0.000000 0.197079
v -1.409117 0.740099 0.197079
v 1.409117 0.000000 0.197079
v 1.409117 -0.740099 0.197079
v 1.409117 0.740099 0.000000
v 1.409117 0.740099 0.197079
v -1.409117 0.740099 0.000000
v 1.409117 -0.740099 0.000000
v 1.409117 0.000000 0.000000
v -1.409117 0.000000 0.000000
v -1.409117 -0.740099 -0.197079
v -1.409117 0.000000 -0.197079
v -1.409117 0.740099 -0.197079
v 1.409117 0.000000 -0.197079
v 1.409117 -0.740099 -0.197079
v 1.409117 0.740099 -0.197079
v -0.679024 0.835294 0.188282
v -1.358048 0.835294 0.188282
v 1.358048 0.835294 -0.000000
v 1.358048 0.835294 0.188282
v -1.358048 0.835294 -0.000000
v 0.679024 0.835294 -0.000000
v -0.679024 0.835294 -0.188282
v -1.358048 0.835294 -0.188282
v 1.358048 0.835294 -0.188282
v 0.679024 0.835294 0.188282
v 0.000000 0.835294 0.188282
v -0.679024 0.835294 -0.000000
v 0.000000 0.835294 -0.000000
v 0.679024 0.835294 -0.188282
v 0.000000 0.835294 -0.188282
vt 0.012310 0.271563
vt 0.012310 0.402135
vt 0.012310 0.402135
vt 0.012310 0.271563
vt 0.158405 0.140990
vt 0.012310 0.140990
vt 0.012310 0.010417
vt 0.158405 0.010418
vt 0.694455 0.140990
vt 0.694455 0.010417
vt 0.740110 0.010417
vt 0.740110 0.140990
vt 0.304500 0.010418
vt 0.158405 0.010418
vt 0.304500 0.010418
vt 0.648800 0.010417
vt 0.648800 0.010417
vt 0.694455 0.010417
vt 0.012310 0.140990
vt 0.012310 0.010417
vt 0.476650 0.402135
vt 0.476650 0.532708
vt 0.330555 0.532708
vt 0.330555 0.402135
vt 0.648800 0.140990
vt 0.811819 0.532708
vt 0.857474 0.532708
vt 0.857474 0.532708
vt 0.811819 0.532708
vt 0.811819 0.010417
vt 0.766164 0.010417
vt 0.766164 0.010417
vt 0.811819 0.010417
vt 0.694455 0.402135
vt 0.648800 0.402135
vt 0.648800 0.271563
vt 0.694455 0.271563
vt 0.476650 0.140990
vt 0.476650 0.271563
vt 0.330555 0.271563
vt 0.330555 0.140990
vt 0.012310 0.532708
vt 0.012310 0.532708
vt 0.740110 0.271563
vt 0.740110 0.402135
vt 0.158405 0.402135
vt 0.158405 0.271563
vt 0.857474 0.010417
vt 0.857474 0.010417
vt 0.811819 0.010417
vt 0.694455 0.532708
vt 0.740110 0.532708
vt 0.648800 0.532708
vt 0.766164 0.532708
vt 0.766164 0.532708
vt 0.811819 0.532708
vt 0.330555 0.532708
vt 0.330555 0.402135
vt 0.158405 0.532708
vt 0.330555 0.010417
vt 0.330555 0.140990
vt 0.330555 0.010417
vt 0.476650 0.010417
vt 0.622745 0.010417
vt 0.622745 0.140990
vt 0.304500 0.532708
vt 0.304500 0.402135
vt 0.304500 0.271563
vt 0.304500 0.140990
vt 0.622745 0.271563
vt 0.622745 0.402135
vt 0.304500 0.532708
vt 0.158405 0.532708
vt 0.330555 0.010417
vt 0.476650 0.010417
vt 0.622745 0.532708
vt 0.766164 0.532708
vt 0.012310 0.010417
vt 0.057965 0.704858
vt 0.057965 0.558763
vt 0.103619 0.558763
vt 0.103619 0.704858
vt 0.129674 0.704858
vt 0.129674 0.558763
vt 0.175329 0.558763
vt 0.175329 0.704858
vt 0.012310 0.704858
vt 0.012310 0.558763
vt 0.220984 0.704858
vt 0.220984 0.558763
vt 0.220984 0.850953
vt 0.175329 0.850953
vt 0.057965 0.850953
vt 0.012310 0.850953
vt 0.129674 0.850953
vt 0.103619 0.850953
vt 0.694455 0.532708
vt 0.648800 0.532708
vt 0.012310 0.532708
vt 0.476650 0.532708
vt 0.330555 0.532708
vt 0.857474 0.010417
vt 0.622745 0.010417
vt 0.740110 0.010417
vt 0.740110 0.532708
vt 0.622745 0.532708
vt 0.811819 0.140990
vt 0.857474 0.140990
vt 0.766164 0.140990
vt 0.766164 0.010417
vt 0.811819 0.402135
vt 0.766164 0.402135
vt 0.766164 0.271563
vt 0.811819 0.271563
vt 0.857474 0.271563
vt 0.857474 0.402135
vt 0.857474 0.532708
vt 0.330555 0.271563
vn 0.0000 0.8681 0.4964
vn 0.0000 0.0000 1.0000
vn 0.0000 -1.0000 0.0000
vn -0.9302 0.0000 -0.3671
vn 0.9443 0.3292 0.0000
vn 0.0000 0.0000 -1.0000
vn 0.9443 -0.3292 0.0000
vn -0.9443 -0.3292 0.0000
vn -0.4404 0.8978 0.0000
vn 0.4404 0.8978 0.0000
vn 0.0000 0.8681 -0.4964
vn 0.9302 0.0000 -0.3671
vn 0.9302 0.0000 0.3671
vn 1.0000 0.0000 0.0000
vn -1.0000 0.0000 0.0000
vn -0.9443 0.3292 0.0000
vn -0.9302 0.0000 0.3671
vn 0.0000 1.0000 0.0000
usemtl Material
s off
f 13/1/1 25/2/1 65/3/1 66/4/1
f 35/5/2 18/6/2 3/7/2 28/8/2
f 26/9/3 12/10/3 2/11/3 23/12/3
f 4/13/4 28/8/4 40/14/4 39/15/4
f 12/10/5 6/16/5 54/17/5 47/18/5
f 3/7/1 18/6/1 56/19/1 57/20/1
f 34/21/6 30/22/6 7/23/6 20/24/6
f 26/9/3 24/25/3 6/16/3 12/10/3
f 10/26/7 1/27/7 45/28/7 44/29/7
f 11/30/8 7/31/8 52/32/8 46/33/8
f 19/34/3 22/35/3 17/36/3 15/37/3
f 37/38/6 32/39/6 16/40/6 27/41/6
f 25/2/1 1/42/1 59/43/1 65/3/1
f 19/34/3 15/37/3 14/44/3 21/45/3
f 36/46/2 25/2/2 13/1/2 33/47/2
f 11/30/9 3/48/9 57/49/9 60/50/9
f 9/51/3 19/34/3 21/45/3 4/52/3
f 9/51/3 8/53/3 22/35/3 19/34/3
f 32/39/6 34/21/6 20/24/6 16/40/6
f 10/26/10 5/54/10 64/55/10 58/56/10
f 33/47/2 13/1/2 18/6/2 35/5/2
f 18/6/1 13/1/1 66/4/1 56/19/1
f 20/24/11 7/23/11 63/57/11 62/58/11
f 29/59/2 1/42/2 25/2/2 36/46/2
f 5/60/11 27/41/11 69/61/11 64/62/11
f 31/63/6 37/38/6 27/41/6 5/60/6
f 15/37/3 17/36/3 24/25/3 26/9/3
f 15/37/3 26/9/3 23/12/3 14/44/3
f 6/64/6 24/65/6 37/38/6 31/63/6
f 2/66/2 29/59/2 36/46/2 23/67/2
f 14/68/2 33/47/2 35/5/2 21/69/2
f 17/70/6 22/71/6 34/21/6 32/39/6
f 23/67/2 36/46/2 33/47/2 14/68/2
f 24/65/6 17/70/6 32/39/6 37/38/6
f 29/59/12 2/66/12 43/72/12 42/73/12
f 31/63/13 5/60/13 55/74/13 53/75/13
f 22/71/6 8/76/6 30/22/6 34/21/6
f 5/54/7 10/26/7 44/29/7 55/77/7
f 28/8/4 3/7/4 41/78/4 40/14/4
f 21/69/2 35/5/2 28/8/2 4/13/2
f 48/79/14 44/80/14 45/81/14 42/82/14
f 40/83/15 41/84/15 46/85/15 49/86/15
f 48/79/14 53/87/14 55/88/14 44/80/14
f 51/89/15 49/86/15 46/85/15 52/90/15
f 50/91/15 38/92/15 49/86/15 51/89/15
f 47/93/14 54/94/14 53/87/14 48/79/14
f 39/95/15 40/83/15 49/86/15 38/92/15
f 47/93/14 48/79/14 42/82/14 43/96/14
f 8/53/16 9/51/16 38/97/16 50/98/16
f 1/42/12 29/59/12 42/73/12 45/99/12
f 7/23/17 30/22/17 51/100/17 52/101/17
f 3/48/8 11/30/8 46/33/8 41/102/8
f 6/64/13 31/63/13 53/75/13 54/103/13
f 2/11/5 12/10/5 47/18/5 43/104/5
f 9/51/16 4/52/16 39/105/16 38/97/16
f 30/22/17 8/76/17 50/106/17 51/100/17
f 67/107/18 60/50/18 57/49/18 56/108/18
f 67/107/18 62/109/18 63/110/18 60/50/18
f 61/111/18 69/112/18 70/113/18 68/114/18
f 61/111/18 68/114/18 66/115/18 65/116/18
f 68/114/18 70/113/18 62/109/18 67/107/18
f 68/114/18 67/107/18 56/108/18 66/115/18
f 58/56/18 61/111/18 65/116/18 59/117/18
f 58/56/18 64/55/18 69/112/18 61/111/18
f 16/40/11 20/24/11 62/58/11 70/118/11
f 27/41/11 16/40/11 70/118/11 69/61/11
f 1/27/10 10/26/10 58/56/10 59/117/10
f 7/31/9 11/30/9 60/50/9 63/110/9
o Cube.002
v 1.392097 0.534280 0.043437
v 1.392097 0.632833 0.043437
v 1.392097 0.534280 -0.043437
v 1.392097 0.632833 -0.043437
v 1.655560 0.524240 0.043437
v 1.655560 0.632833 0.043437
v 1.655560 0.524240 -0.043437
v 1.655560 0.632833 -0.043437
v 1.570709 0.534280 -0.043437
v 1.570709 0.632833 -0.043437
v 1.570709 0.534280 0.043437
v 1.570709 0.632833 0.043437
v 1.655560 -0.880311 0.043437
v 1.655560 -0.880311 -0.043437
v 1.570709 -0.880311 0.043437
v 1.570709 -0.880311 -0.043437
v 1.655560 -0.777224 -0.043437
v 1.570709 -0.777224 -0.043437
v 1.570709 -0.777224 0.043437
v 1.655560 -0.777224 0.043437
v 1.655560 -0.880311 -0.396156
v 1.570709 -0.880311 -0.396156
v 1.655560 -0.777224 -0.396156
v 1.570709 -0.777224 -0.396156
v 1.581668 0.632833 -0.032217
v 1.644601 0.632833 -0.032217
v 1.644601 0.632833 0.032217
v 1.581668 0.632833 0.032217
v 1.581668 0.702316 -0.032217
v 1.644601 0.702316 -0.032217
v 1.644601 0.702316 0.032217
v 1.581668 0.702316 0.032217
v 1.537793 0.687708 -0.077138
v 1.688475 0.687708 -0.077138
v 1.688475 0.687708 0.077138
v 1.537793 0.687708 0.077138
v 1.537793 0.847051 -0.077138
v 1.688475 0.847051 -0.077138
v 1.688475 0.847051 0.077138
v 1.537793 0.847051 0.077138
vt 0.904171 0.615532
vt 0.904171 0.596019
vt 0.921907 0.596019
vt 0.921907 0.617520
vt 0.685810 0.617520
vt 0.685810 0.596019
vt 0.706594 0.596019
vt 0.706594 0.617520
vt 0.829500 0.615532
vt 0.829500 0.596019
vt 0.866835 0.596019
vt 0.866835 0.615532
vt 0.685810 0.875204
vt 0.685810 0.895615
vt 0.601425 0.895615
vt 0.601425 0.875204
vt 0.898332 0.913827
vt 0.898332 0.875204
vt 0.919116 0.875204
vt 0.919116 0.913827
vt 0.919116 0.932176
vt 0.898332 0.932176
vt 0.901017 0.929806
vt 0.916432 0.929806
vt 0.662419 0.934238
vt 0.662419 0.895615
vt 0.683203 0.895615
vt 0.683203 0.934238
vt 0.811763 0.617520
vt 0.811763 0.596019
vt 0.866835 0.615532
vt 0.866835 0.596019
vt 0.921907 0.683315
vt 0.939644 0.683315
vt 0.939644 0.704816
vt 0.921907 0.704816
vt 0.811763 0.875204
vt 0.829500 0.875204
vt 0.829500 0.895615
vt 0.811763 0.895615
vt 0.811763 0.616430
vt 0.790979 0.616430
vt 0.790979 0.596019
vt 0.811763 0.596019
vt 0.706594 0.875204
vt 0.706594 0.895615
vt 0.811763 0.876102
vt 0.790979 0.876102
vt 0.921907 0.875204
vt 0.904171 0.875204
vt 0.921907 0.704816
vt 0.939644 0.704816
vt 0.939644 0.792112
vt 0.921907 0.792112
vt 0.921907 0.596019
vt 0.939644 0.596019
vt 0.706594 0.616430
vt 0.706594 0.596019
vt 0.825062 0.895615
vt 0.825062 0.911562
vt 0.811763 0.911562
vt 0.811763 0.895615
vt 0.916432 0.916197
vt 0.901017 0.916197
vt 0.876006 0.886322
vt 0.876006 0.902269
vt 0.866835 0.913387
vt 0.866835 0.875204
vt 0.851372 0.909372
vt 0.838217 0.909372
vt 0.838217 0.895615
vt 0.851372 0.895615
vt 0.838217 0.909372
vt 0.825062 0.909372
vt 0.825062 0.895615
vt 0.838217 0.895615
vt 0.696502 0.895615
vt 0.696502 0.911562
vt 0.683203 0.911562
vt 0.683203 0.895615
vt 0.954936 0.945825
vt 0.954936 0.984007
vt 0.924439 0.984007
vt 0.924439 0.945825
vt 0.889161 0.902269
vt 0.889161 0.886322
vt 0.898332 0.875204
vt 0.898332 0.913387
vt 0.892942 0.945825
vt 0.924439 0.945825
vt 0.924439 0.984007
vt 0.892942 0.984007
vt 0.787772 0.997922
vt 0.787772 0.965338
vt 0.818269 0.965338
vt 0.818269 0.997922
vt 0.818269 0.997922
vt 0.818269 0.965338
vt 0.848767 0.965338
vt 0.848767 0.997922
vt 0.985433 0.945825
vt 0.985433 0.984007
vt 0.954936 0.984007
vt 0.954936 0.945825
vn 0.0000 0.0000 -1.0000
vn 1.0000 0.0000 0.0000
vn 0.0000 0.0000 1.0000
vn 0.0000 1.0000 0.0000
vn 0.0000 -1.0000 0.0000
vn -1.0000 0.0000 0.0000
vn 0.3159 -0.9488 0.0000
vn -0.3159 -0.9488 0.0000
vn 0.0000 -0.9510 -0.3093
vn 0.0000 -0.9510 0.3093
usemtl None
s off
f 79/119/19 80/120/19 78/121/19 77/122/19
f 77/123/20 78/124/20 76/125/20 75/126/20
f 81/127/21 82/128/21 72/129/21 71/130/21
f 87/131/20 84/132/20 91/133/20 93/134/20
f 80/135/22 74/136/22 72/137/22 82/138/22
f 76/139/22 78/140/22 96/141/22 97/142/22
f 73/143/23 79/144/23 81/145/23 71/146/23
f 75/147/21 76/148/21 82/128/21 81/127/21
f 73/149/19 74/150/19 80/120/19 79/119/19
f 86/151/23 84/152/23 83/153/23 85/154/23
f 90/155/21 89/156/21 85/157/21 83/158/21
f 89/159/24 88/160/24 86/161/24 85/162/24
f 87/131/20 90/163/20 83/164/20 84/132/20
f 77/123/20 75/126/20 90/163/20 87/131/20
f 81/165/24 79/166/24 88/160/24 89/159/24
f 75/147/21 81/127/21 89/156/21 90/155/21
f 79/119/19 77/122/19 87/167/19 88/168/19
f 88/169/22 87/170/22 93/171/22 94/172/22
f 84/152/23 86/151/23 92/173/23 91/174/23
f 86/161/24 88/160/24 94/175/24 92/176/24
f 97/177/20 96/178/20 100/179/20 101/180/20
f 82/138/22 76/139/22 97/142/22 98/181/22
f 78/140/22 80/135/22 95/182/22 96/141/22
f 80/135/22 82/138/22 98/181/22 95/182/22
f 99/183/25 102/184/25 106/185/25 103/186/25
f 98/187/21 97/188/21 101/189/21 102/190/21
f 96/191/19 95/192/19 99/193/19 100/194/19
f 95/195/24 98/196/24 102/197/24 99/198/24
f 105/199/20 104/200/20 108/201/20 109/202/20
f 101/203/26 100/204/26 104/205/26 105/206/26
f 102/184/27 101/203/27 105/206/27 106/185/27
f 100/204/28 99/183/28 103/186/28 104/205/28
f 108/207/22 107/208/22 110/209/22 109/210/22
f 106/211/21 105/212/21 109/213/21 110/214/21
f 104/215/19 103/216/19 107/217/19 108/218/19
f 103/219/24 106/220/24 110/221/24 107/222/24
