# Blender v2.90.1 OBJ File: 'WineBottle.blend'
# www.blender.org
mtllib WineBottle.mtl
o Cylinder
v 0.000000 -0.019533 -1.000000
v 0.000000 4.545599 -1.000000
v 0.951057 -0.019533 -0.309017
v 0.951057 4.545599 -0.309017
v 0.587785 -0.019533 0.809017
v 0.587785 4.545599 0.809017
v -0.587785 -0.019533 0.809017
v -0.587785 4.545599 0.809017
v -0.951056 -0.019533 -0.309017
v -0.951056 4.545599 -0.309017
v 0.375815 5.459167 -0.122110
v 0.000000 5.459167 -0.395155
v 0.232266 5.459167 0.319687
v -0.232266 5.459167 0.319687
v -0.375815 5.459167 -0.122110
v 0.375816 7.231172 -0.122110
v 0.000001 7.231172 -0.395155
v 0.232267 7.231172 0.319687
v -0.232266 7.231172 0.319687
v -0.375814 7.231172 -0.122110
v 0.000000 2.263033 -1.000000
v 0.951057 2.263033 -0.309017
v 0.587785 2.263033 0.809017
v -0.587785 2.263033 0.809017
v -0.951056 2.263033 -0.309017
v 0.232267 6.345169 0.319687
v -0.232266 6.345169 0.319687
v 0.000001 6.345169 -0.395155
v 0.375815 6.345169 -0.122110
v -0.375814 6.345169 -0.122110
vt 0.609619 0.285588
vt 0.609619 0.561841
vt 0.467343 0.561841
vt 0.467343 0.285588
vt 0.433033 0.285500
vt 0.433033 0.561753
vt 0.290756 0.561752
vt 0.290756 0.285500
vt 0.148480 0.561753
vt 0.148480 0.285500
vt 0.036744 0.673510
vt 0.149060 0.586173
vt 0.192087 0.711602
vt 0.147705 0.746113
vt 0.006204 0.561752
vt 0.006204 0.285500
vt 0.751895 0.285588
vt 0.751895 0.561841
vt 0.755723 0.672115
vt 0.839351 0.557011
vt 0.974663 0.600977
vt 0.974663 0.743253
vt 0.839351 0.787219
vt 0.196702 0.872903
vt 0.252923 0.872903
vt 0.252923 0.980133
vt 0.196702 0.980133
vt 0.291336 0.586173
vt 0.403652 0.673510
vt 0.292690 0.746113
vt 0.248308 0.711602
vt 0.607112 0.587782
vt 0.741690 0.633948
vt 0.660291 0.738628
vt 0.607112 0.720385
vt 0.472534 0.633948
vt 0.553933 0.738628
vt 0.929026 0.963126
vt 0.875557 0.980499
vt 0.842511 0.935015
vt 0.875557 0.889531
vt 0.929026 0.906905
vt 0.551555 0.861955
vt 0.607776 0.861955
vt 0.607776 0.969186
vt 0.551555 0.969186
vt 0.140480 0.872903
vt 0.140481 0.980133
vt 0.309144 0.872903
vt 0.309144 0.980133
vt 0.663997 0.861955
vt 0.663997 0.969186
vt 0.751895 0.009335
vt 0.609619 0.009335
vt 0.148480 0.009247
vt 0.006204 0.009247
vt 0.290756 0.009247
vt 0.433033 0.009247
vt 0.467343 0.009335
vt 0.607776 0.754725
vt 0.663997 0.754725
vt 0.252923 0.765672
vt 0.309144 0.765672
vt 0.140480 0.765672
vt 0.196702 0.765672
vt 0.551555 0.754725
vn 0.5878 0.0000 -0.8090
vn 0.9511 0.0000 0.3090
vn -0.0000 0.0000 1.0000
vn -0.8384 0.4722 0.2724
vn -0.9511 0.0000 0.3090
vn -0.5878 0.0000 -0.8090
vn 0.0000 -1.0000 0.0000
vn 0.8384 0.4722 0.2724
vn -0.5181 0.4722 -0.7132
vn 0.5181 0.4722 -0.7132
vn -0.0000 0.4722 0.8815
vn 0.0000 1.0000 0.0000
usemtl None
s off
f 21/1/1 2/2/1 4/3/1 22/4/1
f 22/5/2 4/6/2 6/7/2 23/8/2
f 23/8/3 6/7/3 8/9/3 24/10/3
f 10/11/4 8/12/4 14/13/4 15/14/4
f 24/10/5 8/9/5 10/15/5 25/16/5
f 25/17/6 10/18/6 2/2/6 21/1/6
f 1/19/7 3/20/7 5/21/7 7/22/7 9/23/7
f 27/24/3 26/25/3 18/26/3 19/27/3
f 6/28/8 4/29/8 11/30/8 13/31/8
f 2/32/9 10/33/9 15/34/9 12/35/9
f 4/36/10 2/32/10 12/35/10 11/37/10
f 8/12/11 6/28/11 13/31/11 14/13/11
f 16/38/12 17/39/12 20/40/12 19/41/12 18/42/12
f 29/43/1 28/44/1 17/45/1 16/46/1
f 30/47/5 27/24/5 19/27/5 20/48/5
f 26/25/2 29/49/2 16/50/2 18/26/2
f 28/44/6 30/51/6 20/52/6 17/45/6
f 9/53/6 25/17/6 21/1/6 1/54/6
f 7/55/5 24/10/5 25/16/5 9/56/5
f 5/57/3 23/8/3 24/10/3 7/55/3
f 3/58/2 22/5/2 23/8/2 5/57/2
f 1/54/1 21/1/1 22/4/1 3/59/1
f 12/60/6 15/61/6 30/51/6 28/44/6
f 13/62/2 11/63/2 29/49/2 26/25/2
f 15/64/5 14/65/5 27/24/5 30/47/5
f 11/66/1 12/60/1 28/44/1 29/43/1
f 14/65/3 13/62/3 26/25/3 27/24/3
